<svg xmlns="http://www.w3.org/2000/svg" xmlns:xlink="http://www.w3.org/1999/xlink" width="170" zoomAndPan="magnify" viewBox="0 0 375 149.999998" height="40" preserveAspectRatio="xMidYMid meet" version="1.0"><defs><g/></defs><path stroke-linecap="butt" transform="matrix(0.75, 0, 0, 0.75, 7.500003, 11.103092)" fill="none" stroke-linejoin="miter" d="M 41.640624 48.055255 C 54.494791 48.055255 65.786459 51.253172 75.520834 57.649006 L 67.307292 74.711507 C 62.791667 72.091715 57.953125 69.940673 52.796874 68.26359 C 47.640624 66.586506 43.302082 65.742756 39.786457 65.742756 C 33.489582 65.742756 30.33854 67.831298 30.33854 72.01359 C 30.33854 74.711507 31.890623 76.878173 34.989582 78.518798 C 38.104165 80.154215 41.890624 81.57609 46.348957 82.774007 C 50.807291 83.95109 55.265625 85.383382 59.71875 87.060466 C 64.197917 88.721924 67.984375 91.440674 71.083334 95.216716 C 74.203126 98.971925 75.760418 103.721925 75.760418 109.4563 C 75.760418 117.732342 72.520834 124.185468 66.046875 128.826093 C 59.59375 133.440677 51.364583 135.747968 41.374999 135.747968 C 34.255207 135.747968 27.223956 134.518802 20.265623 132.060468 C 13.312497 129.602135 7.255205 126.247968 2.098955 121.987551 L 10.55208 105.169842 C 14.890622 108.92505 20.005206 112.013592 25.90104 114.435467 C 31.796873 116.852134 37.046874 118.060467 41.640624 118.060467 C 45.161457 118.060467 47.901041 117.430259 49.859374 116.169842 C 51.817708 114.893801 52.796874 113.024009 52.796874 110.565675 C 52.796874 108.185467 51.666666 106.201092 49.406249 104.602133 C 47.171874 103.003175 44.369791 101.820883 41.015624 101.060466 C 37.656249 100.284425 34.010415 99.232341 30.072915 97.914633 C 26.15104 96.596925 22.515623 95.164633 19.156248 93.628174 C 15.802081 92.065674 12.989581 89.591716 10.734372 86.190674 C 8.494789 82.79484 7.374997 78.716715 7.374997 73.961507 C 7.374997 66.107339 10.505205 59.831297 16.760414 55.13338 C 23.015623 50.41463 31.30729 48.055255 41.640624 48.055255 Z M 118.265628 68.081298 C 129.057296 68.081298 137.770838 71.16984 144.406255 77.346923 C 151.041672 83.524007 154.364589 91.690674 154.364589 101.841717 C 154.364589 111.992759 151.041672 120.190676 144.406255 126.425051 C 137.770838 132.643802 129.057296 135.747968 118.265628 135.747968 C 107.375003 135.747968 98.609377 132.643802 91.97396 126.425051 C 85.338543 120.190676 82.020835 111.992759 82.020835 101.841717 C 82.020835 91.690674 85.338543 83.524007 91.97396 77.346923 C 98.609377 71.16984 107.375003 68.081298 118.265628 68.081298 Z M 118.265628 84.904216 C 113.828128 84.904216 110.239586 86.503174 107.500003 89.701091 C 104.765628 92.878174 103.395836 97.003175 103.395836 102.0813 C 103.395836 107.23755 104.765628 111.3938 107.500003 114.555259 C 110.239586 117.711509 113.828128 119.289634 118.265628 119.289634 C 122.60417 119.289634 126.140629 117.711509 128.880212 114.555259 C 131.614587 111.3938 132.984379 107.23755 132.984379 102.0813 C 132.984379 97.003175 131.614587 92.878174 128.880212 89.701091 C 126.140629 86.503174 122.60417 84.904216 118.265628 84.904216 Z M 198.317716 59.716714 C 196.098966 59.638589 194.270841 60.237547 192.828133 61.518797 C 191.411466 62.779214 190.703133 64.596923 190.703133 66.971923 L 190.703133 71.768798 L 205.692717 71.768798 L 205.692717 85.774007 L 190.703133 85.774007 L 190.703133 134.997968 L 169.713548 134.997968 L 169.713548 85.774007 L 160.750006 85.774007 L 160.750006 71.768798 L 169.713548 71.768798 L 169.713548 65.622964 C 169.713548 58.487547 172.08334 52.925047 176.817715 48.925047 C 181.578132 44.909422 187.635424 42.899005 194.989591 42.899005 C 202.041675 42.899005 208.229175 44.461505 213.546884 47.576088 L 206.052092 62.419839 C 203.593758 60.617756 201.015633 59.716714 198.317716 59.716714 Z M 215.796884 41.75838 C 217.895842 39.66463 220.583343 38.612546 223.859384 38.612546 C 227.135426 38.612546 229.817718 39.66463 231.895843 41.75838 C 233.994802 43.841713 235.041677 46.518797 235.041677 49.794838 C 235.041677 53.055255 233.994802 55.753172 231.895843 57.888589 C 229.817718 60.008381 227.135426 61.065672 223.859384 61.065672 C 220.583343 61.065672 217.895842 60.008381 215.796884 57.888589 C 213.718759 55.753172 212.677092 53.055255 212.677092 49.794838 C 212.677092 46.518797 213.718759 43.841713 215.796884 41.75838 Z M 234.291677 134.997968 L 213.187509 134.997968 L 213.187509 68.805256 L 234.291677 68.805256 Z M 234.291677 134.997968 " stroke="#000000" stroke-width="9.210375" stroke-opacity="1" stroke-miterlimit="4"/><path stroke-linecap="butt" transform="matrix(0.75, 0, 0, 0.75, 7.500003, 11.103092)" fill="none" stroke-linejoin="miter" d="M 251.494803 49.044838 L 288.458347 49.044838 C 301.953139 49.044838 312.937515 53.013589 321.411473 60.945881 C 329.885432 68.883381 334.119808 79.237549 334.119808 92.008383 C 334.119808 104.701092 329.822932 115.044842 321.229182 123.039634 C 312.635431 131.013593 301.421889 134.997968 287.593763 134.997968 L 251.494803 134.997968 Z M 273.348971 66.466714 L 273.348971 117.550051 L 288.942722 117.550051 C 295.656264 117.550051 301.161472 115.201092 305.458348 110.508384 C 309.755223 105.789633 311.906265 99.67505 311.906265 92.159424 C 311.906265 84.622966 309.645848 78.456298 305.130223 73.659423 C 300.635431 68.862548 294.906264 66.466714 287.953138 66.466714 Z M 374.520852 68.081298 C 385.994811 68.081298 394.609394 71.602131 400.364603 78.63859 C 406.140645 85.669841 408.661479 95.336508 407.921895 107.628175 L 361.390642 107.628175 C 362.447934 111.544842 364.328143 114.570884 367.026059 116.711509 C 369.74481 118.831301 373.062518 119.888593 376.979185 119.888593 C 383.036477 119.888593 388.322936 117.643801 392.838561 113.143801 L 403.989603 124.055259 C 396.87502 131.852135 387.260436 135.747968 375.15106 135.747968 C 364.416684 135.747968 355.875017 132.68026 349.515642 126.544843 C 343.182308 120.388593 340.015641 112.232342 340.015641 102.0813 C 340.015641 91.846924 343.182308 83.622965 349.515642 77.409423 C 355.875017 71.190673 364.208351 68.081298 374.520852 68.081298 Z M 361.031267 96.2063 L 387.531269 96.2063 C 387.531269 92.185466 386.364602 88.951091 384.02606 86.492757 C 381.708352 84.034424 378.61981 82.805257 374.760435 82.805257 C 371.161476 82.805257 368.135435 84.01359 365.677101 86.430257 C 363.218768 88.852132 361.671893 92.107341 361.031267 96.2063 Z M 457.046898 134.997968 L 435.312522 134.997968 L 410.401062 68.805256 L 432.25523 68.805256 L 446.494814 115.602134 L 460.859398 68.805256 L 481.963566 68.805256 Z M 457.046898 134.997968 " stroke="#000000" stroke-width="9.210375" stroke-opacity="1" stroke-miterlimit="4"/><g fill="#ffffff" fill-opacity="1"><g transform="translate(7.500003, 112.353086)"><g><path d="M 31.21875 -65.203125 C 40.851562 -65.203125 49.328125 -62.804688 56.640625 -58.015625 L 50.46875 -45.21875 C 47.09375 -47.1875 43.46875 -48.796875 39.59375 -50.046875 C 35.726562 -51.304688 32.476562 -51.9375 29.84375 -51.9375 C 25.113281 -51.9375 22.75 -50.375 22.75 -47.25 C 22.75 -45.21875 23.914062 -43.585938 26.25 -42.359375 C 28.582031 -41.128906 31.421875 -40.066406 34.765625 -39.171875 C 38.109375 -38.285156 41.453125 -37.210938 44.796875 -35.953125 C 48.148438 -34.703125 50.992188 -32.664062 53.328125 -29.84375 C 55.660156 -27.019531 56.828125 -23.457031 56.828125 -19.15625 C 56.828125 -12.957031 54.398438 -8.125 49.546875 -4.65625 C 44.691406 -1.1875 38.519531 0.546875 31.03125 0.546875 C 25.6875 0.546875 20.40625 -0.367188 15.1875 -2.203125 C 9.976562 -4.046875 5.4375 -6.566406 1.5625 -9.765625 L 7.921875 -22.375 C 11.171875 -19.550781 15.003906 -17.234375 19.421875 -15.421875 C 23.847656 -13.609375 27.78125 -12.703125 31.21875 -12.703125 C 33.863281 -12.703125 35.921875 -13.175781 37.390625 -14.125 C 38.859375 -15.082031 39.59375 -16.484375 39.59375 -18.328125 C 39.59375 -20.109375 38.75 -21.597656 37.0625 -22.796875 C 35.375 -23.992188 33.269531 -24.882812 30.75 -25.46875 C 28.238281 -26.050781 25.507812 -26.832031 22.5625 -27.8125 C 19.613281 -28.789062 16.878906 -29.863281 14.359375 -31.03125 C 11.847656 -32.195312 9.75 -34.050781 8.0625 -36.59375 C 6.375 -39.144531 5.53125 -42.203125 5.53125 -45.765625 C 5.53125 -51.660156 7.875 -56.375 12.5625 -59.90625 C 17.257812 -63.4375 23.476562 -65.203125 31.21875 -65.203125 Z M 31.21875 -65.203125 "/></g></g></g><g fill="#ffffff" fill-opacity="1"><g transform="translate(66.810836, 112.353086)"><g><path d="M 29.375 -50.1875 C 37.476562 -50.1875 44.015625 -47.867188 48.984375 -43.234375 C 53.960938 -38.597656 56.453125 -32.472656 56.453125 -24.859375 C 56.453125 -17.253906 53.960938 -11.117188 48.984375 -6.453125 C 44.015625 -1.785156 37.476562 0.546875 29.375 0.546875 C 21.207031 0.546875 14.632812 -1.785156 9.65625 -6.453125 C 4.6875 -11.117188 2.203125 -17.253906 2.203125 -24.859375 C 2.203125 -32.472656 4.6875 -38.597656 9.65625 -43.234375 C 14.632812 -47.867188 21.207031 -50.1875 29.375 -50.1875 Z M 29.375 -37.578125 C 26.0625 -37.578125 23.375 -36.378906 21.3125 -33.984375 C 19.257812 -31.585938 18.234375 -28.488281 18.234375 -24.6875 C 18.234375 -20.8125 19.257812 -17.691406 21.3125 -15.328125 C 23.375 -12.960938 26.0625 -11.78125 29.375 -11.78125 C 32.632812 -11.78125 35.289062 -12.960938 37.34375 -15.328125 C 39.394531 -17.691406 40.421875 -20.8125 40.421875 -24.6875 C 40.421875 -28.488281 39.394531 -31.585938 37.34375 -33.984375 C 35.289062 -36.378906 32.632812 -37.578125 29.375 -37.578125 Z M 29.375 -37.578125 "/></g></g></g><g fill="#ffffff" fill-opacity="1"><g transform="translate(125.476989, 112.353086)"><g><path d="M 30.765625 -56.453125 C 29.097656 -56.515625 27.726562 -56.066406 26.65625 -55.109375 C 25.582031 -54.160156 25.046875 -52.796875 25.046875 -51.015625 L 25.046875 -47.421875 L 36.28125 -47.421875 L 36.28125 -36.921875 L 25.046875 -36.921875 L 25.046875 0 L 9.296875 0 L 9.296875 -36.921875 L 2.578125 -36.921875 L 2.578125 -47.421875 L 9.296875 -47.421875 L 9.296875 -52.03125 C 9.296875 -57.375 11.078125 -61.546875 14.640625 -64.546875 C 18.203125 -67.554688 22.742188 -69.0625 28.265625 -69.0625 C 33.546875 -69.0625 38.179688 -67.898438 42.171875 -65.578125 L 36.5625 -54.421875 C 34.71875 -55.773438 32.785156 -56.453125 30.765625 -56.453125 Z M 30.765625 -56.453125 "/></g></g></g><g fill="#ffffff" fill-opacity="1"><g transform="translate(161.02665, 112.353086)"><g><path d="M 8.328125 -69.9375 C 9.898438 -71.507812 11.910156 -72.296875 14.359375 -72.296875 C 16.816406 -72.296875 18.828125 -71.507812 20.390625 -69.9375 C 21.960938 -68.375 22.75 -66.363281 22.75 -63.90625 C 22.75 -61.457031 21.960938 -59.429688 20.390625 -57.828125 C 18.828125 -56.234375 16.816406 -55.4375 14.359375 -55.4375 C 11.910156 -55.4375 9.898438 -56.234375 8.328125 -57.828125 C 6.765625 -59.429688 5.984375 -61.457031 5.984375 -63.90625 C 5.984375 -66.363281 6.765625 -68.375 8.328125 -69.9375 Z M 22.1875 0 L 6.359375 0 L 6.359375 -49.640625 L 22.1875 -49.640625 Z M 22.1875 0 "/></g></g></g><g fill="#66f6f6" fill-opacity="1"><g transform="translate(189.667965, 112.353086)"><g><path d="M 6.453125 -64.46875 L 34.171875 -64.46875 C 44.296875 -64.46875 52.535156 -61.488281 58.890625 -55.53125 C 65.242188 -49.570312 68.421875 -41.804688 68.421875 -32.234375 C 68.421875 -22.710938 65.195312 -14.957031 58.75 -8.96875 C 52.3125 -2.988281 43.898438 0 33.515625 0 L 6.453125 0 Z M 22.84375 -51.390625 L 22.84375 -13.078125 L 34.53125 -13.078125 C 39.570312 -13.078125 43.703125 -14.84375 46.921875 -18.375 C 50.140625 -21.90625 51.75 -26.492188 51.75 -32.140625 C 51.75 -37.785156 50.0625 -42.40625 46.6875 -46 C 43.3125 -49.59375 39.015625 -51.390625 33.796875 -51.390625 Z M 22.84375 -51.390625 "/></g></g></g><g fill="#66f6f6" fill-opacity="1"><g transform="translate(260.3068, 112.353086)"><g><path d="M 28.09375 -50.1875 C 36.6875 -50.1875 43.144531 -47.546875 47.46875 -42.265625 C 51.800781 -36.984375 53.691406 -29.738281 53.140625 -20.53125 L 18.234375 -20.53125 C 19.035156 -17.582031 20.445312 -15.3125 22.46875 -13.71875 C 24.5 -12.125 26.988281 -11.328125 29.9375 -11.328125 C 34.476562 -11.328125 38.4375 -13.015625 41.8125 -16.390625 L 50.1875 -8.203125 C 44.84375 -2.367188 37.628906 0.546875 28.546875 0.546875 C 20.503906 0.546875 14.101562 -1.753906 9.34375 -6.359375 C 4.582031 -10.960938 2.203125 -17.070312 2.203125 -24.6875 C 2.203125 -32.351562 4.582031 -38.519531 9.34375 -43.1875 C 14.101562 -47.851562 20.351562 -50.1875 28.09375 -50.1875 Z M 17.953125 -29.109375 L 37.84375 -29.109375 C 37.84375 -32.109375 36.96875 -34.53125 35.21875 -36.375 C 33.46875 -38.21875 31.148438 -39.140625 28.265625 -39.140625 C 25.566406 -39.140625 23.296875 -38.234375 21.453125 -36.421875 C 19.609375 -34.609375 18.441406 -32.171875 17.953125 -29.109375 Z M 17.953125 -29.109375 "/></g></g></g><g fill="#66f6f6" fill-opacity="1"><g transform="translate(315.749542, 112.353086)"><g><path d="M 34.53125 0 L 18.234375 0 L -0.453125 -49.640625 L 15.9375 -49.640625 L 26.609375 -14.546875 L 37.390625 -49.640625 L 53.234375 -49.640625 Z M 34.53125 0 "/></g></g></g></svg>